<svg id="Layer_2" data-name="Layer 2" xmlns="http://www.w3.org/2000/svg" viewBox="0 0 1831 768"><defs><style>.cls-1{fill:#01335f;}.cls-2{fill:#fcb80a;}</style></defs><title>Artboard 1 copy 4</title><path class="cls-1" d="M915.89,384a.25.25,0,0,0,0,.08l-.8-.08Z"/><path class="cls-1" d="M843.29,447.5a40,40,0,1,0,40,40,41,41,0,0,0-.34-5.23A40,40,0,0,0,843.29,447.5Z"/><path class="cls-2" d="M541.26,485.92v-.07a.91.91,0,0,0,0-.17c0-.21,0-.42,0-.62s0-.46,0-.69,0-.64-.09-1-.1-.89-.16-1.34-.1-.73-.17-1.1c0-.18,0-.36-.09-.55s-.12-.65-.18-1-.17-.81-.27-1.21-.13-.53-.2-.8-.15-.59-.24-.88-.18-.63-.28-.94c-.21-.67-.43-1.34-.68-2-.09-.26-.19-.51-.3-.77s-.23-.6-.36-.9-.26-.6-.4-.9-.27-.59-.41-.88-.28-.58-.43-.87c-.25-.49-.52-1-.79-1.46s-.49-.85-.74-1.26c-.1-.17-.2-.33-.31-.49-.24-.39-.49-.76-.75-1.14s-.64-.92-1-1.37c-.18-.25-.37-.49-.56-.73-.6-.77-1.23-1.51-1.89-2.23-.21-.24-.43-.47-.65-.7s-.53-.55-.8-.82-.83-.8-1.26-1.19l-.72-.64c-.24-.21-.48-.42-.73-.62l-.45-.36-.45-.36c-.31-.24-.62-.48-.93-.7s-.62-.46-.94-.67-.7-.48-1.06-.71l-.06,0-1-.63c-.34-.21-.69-.41-1-.6s-.92-.51-1.39-.74-.86-.43-1.3-.63l-.34-.16c-.2-.1-.41-.18-.62-.27l-.62-.26c-.48-.2-1-.39-1.47-.58h0l-.15-.06c-.2-.08-.41-.15-.61-.21l-.14-.05,0,0-.91-.29-.94-.28-.93-.25-.71-.18-.87-.2c-.63-.13-1.27-.25-1.91-.35-.3-.06-.6-.1-.9-.14l-.17,0h-.07l-.33,0-.73-.08-.17,0c-.45-.05-.92-.09-1.38-.12-.16,0-.33,0-.5,0l-.5,0h-.31l-.73,0h-.74l-1.26,0c-.4,0-.8,0-1.19.06l-.67,0c-.32,0-.65.05-1,.09-1.21.12-2.41.3-3.58.53l-.68.13-.19,0-.15,0-.78.18-1.22.32-1.2.35-.62.2c-.49.15-1,.32-1.43.5l-.72.28-1.07.44c-.54.23-1.08.47-1.61.73l-.87.43c-.29.14-.57.29-.85.45l-1.18.67-.15.09c-.39.23-.78.46-1.16.71s-.53.33-.78.51a.1.1,0,0,0,0,0c-.25.16-.49.33-.73.5a35.62,35.62,0,0,0-3.06,2.41c-.25.21-.49.42-.72.64-.39.34-.76.7-1.13,1.07s-.54.53-.8.81-.52.55-.78.83l-.64.72a38.56,38.56,0,0,0-2.5,3.19l-.06.08c-.22.32-.44.64-.65,1s-.46.71-.68,1.07l-.57.95-.47.85-.36.68q-.5.94-.93,1.92c-.09.19-.17.38-.25.57s-.13.31-.2.47-.13.3-.19.46q-.35.82-.63,1.68c-.15.39-.28.78-.4,1.18s-.24.76-.35,1.15c0,.05,0,.1,0,.15-.08.27-.15.54-.22.81l-.24,1c-.09.42-.18.83-.26,1.25-.05.23-.09.47-.13.7s-.1.56-.14.84l0,.15c-.11.74-.2,1.48-.27,2.23,0,.32-.06.64-.08,1s0,.64-.06,1c0,.64,0,1.29,0,1.94a40,40,0,0,0,40,40c.5,0,1,0,1.49,0H503c.46,0,.91,0,1.36-.08h.13l.85-.08h0c.5,0,1-.11,1.49-.18l1.5-.24.63-.12.51-.1,1-.21.81-.2,1-.26c.66-.18,1.32-.39,2-.61s1.17-.42,1.74-.65l.95-.38c.59-.25,1.16-.51,1.73-.79.31-.14.62-.3.92-.45.52-.27,1-.55,1.55-.84.32-.18.64-.37.95-.57s.53-.32.79-.49c.55-.35,1.08-.71,1.6-1.08q.39-.27.78-.57L526,519l.75-.61c.25-.2.49-.4.73-.62l.72-.64c.24-.2.47-.42.7-.65s.46-.44.69-.67.46-.45.67-.69.44-.46.65-.7l.64-.72c.22-.24.43-.49.62-.73s.32-.39.47-.58q.68-.84,1.29-1.71l.48-.69,0-.06c.33-.48.64-1,.94-1.46q.24-.37.45-.75c.22-.37.44-.75.64-1.13s.3-.57.45-.85c.29-.56.56-1.12.82-1.7,0-.08.07-.15.1-.23.12-.27.24-.54.35-.81s.23-.54.33-.81.24-.6.35-.91l.26-.72c.07-.22.15-.45.22-.68s.23-.71.33-1.07.17-.57.24-.86.16-.57.23-.87.14-.58.2-.87l.09-.41c0-.13.06-.27.08-.4a.19.19,0,0,0,0-.07c.11-.59.22-1.2.31-1.8.06-.39.11-.79.16-1.19,0-.24.06-.48.08-.72s.07-.67.09-1a3.71,3.71,0,0,0,0-.47c0-.36,0-.72.06-1.09s0-1,0-1.52,0-.83,0-1.24C541.27,486.14,541.26,486,541.26,485.92Z"/><path class="cls-2" d="M639.29,420a12.5,12.5,0,0,0-12.5-12.5h-46.5v-50h45.79a12.5,12.5,0,0,0,0-25H580.29V271.65H501.42a111.11,111.11,0,0,0-99.29,75.23,52.43,52.43,0,0,0-57.91,86.78,29.7,29.7,0,0,1,4,41.59C338,487.75,319.51,489.18,307,478.9L275.45,453a11.56,11.56,0,0,0-14.69,17.86l31.55,25.95a52.55,52.55,0,0,0,66.77-81.16A29.56,29.56,0,0,1,355,374c10.28-12.5,28.76-13.93,41.26-3.65l.6.5a112.18,112.18,0,0,0-.6,11.65A111,111,0,0,0,447.49,476a55,55,0,0,1,89.28-30.52c.76.63,1.5,1.3,2.23,2a54.86,54.86,0,0,1,17.29,40A52.61,52.61,0,0,1,556,493h24.28V432.5h46.5A12.5,12.5,0,0,0,639.29,420Z"/><path class="cls-1" d="M888.09,383.83l-34.93-14-46-71.68c-9.55-14.86-30.82-26.5-48.48-26.5H604.29V317.5h21.79a27.5,27.5,0,0,1,0,55H604.29v20h22.5a27.5,27.5,0,0,1,0,55h-22.5v45.56H788.57a53.76,53.76,0,0,1-.28-5.56,55,55,0,0,1,110,0,53.76,53.76,0,0,1-.28,5.56h19.63a6.92,6.92,0,0,0,6.91-6.92V437.73C924.55,415.77,908.49,392,888.09,383.83ZM739.4,374.51c-11.81,0-23-9.72-24.69-21.43l-8.79-61.59h40.34c13,0,29.85,9.24,36.86,20.15l40.36,62.87Z"/><path class="cls-1" d="M1048.38,369.9v22.48H964.82V369.9H1007V325.28q0-7.56-7.57-7.55H964.82V295.25h43.38q13.44,0,21.43,7.71t8,24V369.9Z"/><path class="cls-1" d="M1055.94,369.9h29.43q7.73,0,11.1-5.45t3.36-13.84V337q0-8.38-3.36-13.84t-11.1-5.45h-29.43V295.25h38.17q17.82,0,27.07,11.91t9.25,31.54v10.23q0,19.63-9.25,31.54t-27.07,11.91h-38.17Z"/><path class="cls-1" d="M1144.05,314.87l-1.85-19.62h30.43l2,19.62v77.51h-30.6Z"/><path class="cls-1" d="M1185.58,369.9H1215q7.74,0,11.1-5.45t3.36-13.84V337q0-8.38-3.36-13.84t-11.1-5.45h-29.42V295.25h38.17q17.82,0,27.07,11.91t9.24,31.54v10.23q0,19.63-9.24,31.54t-27.07,11.91h-38.17Z"/><path class="cls-1" d="M1380.28,295.25v24.82l-28.92,72.31h-30.6l28.92-74.65h-46.74V272.1h27.24v23.15Z"/><path class="cls-1" d="M1452.07,392.38l-27.91-44.12-13.28,44.12H1382l18.83-57.54,5.38-13.76-15.63-25.83h30.6l12.61,20.8,9.92,15.43,4.87-16.1,4.88-20.13h28.92l-20.85,62.57,22.87,34.56Z"/><path class="cls-1" d="M1497.13,314.87l-1.85-19.62h30.44l2,19.62v77.51h-30.61Z"/><path class="cls-1" d="M1543.88,314.87,1542,295.25h30.43l2,19.62v26.68l-.17,10.57-30.43,5Z"/><path class="cls-1" d="M964.82,462.09l2.55-6.84h16v34.91H964.82Zm33.57-12.75q0-4.6-4.59-4.6H965.63V431.07h33.48q8.16,0,13,4.69t4.85,14.6v39.8H998.39Z"/><path class="cls-1" d="M1048.09,449.34q0-4.6-4.59-4.6h-20.92V431.07h26.23q8.16,0,13,4.69t4.85,14.6v39.8h-18.58Z"/><path class="cls-1" d="M1076.46,443l-1.12-11.94h18.47L1095,443v47.15h-18.58Z"/><path class="cls-1" d="M1153.41,476.48v13.68h-50.72V476.48h25.61V449.34q0-4.6-4.59-4.6h-21V431.07H1129q8.16,0,13,4.69t4.85,14.6v26.12Z"/><path class="cls-1" d="M1209.38,435.76q4.84,4.69,4.85,14.6v39.8h-18.57V449.34q0-4.6-4.59-4.6h-11.64v45.42h-18.57V431.07h35.51Q1204.53,431.07,1209.38,435.76Z"/><path class="cls-1" d="M1220.05,479.65a19.31,19.31,0,0,0,5.61-1.38,4.14,4.14,0,0,0,2.24-2.6,19.84,19.84,0,0,0,.52-5.31V431.07h34.08q8.16,0,13,4.69t4.85,14.6v39.8h-18.57V449.34q0-4.6-4.6-4.6H1247v23.17q0,8.67-2.65,13.67a16,16,0,0,1-8.12,7.35q-5.46,2.35-14.64,3.17Z"/><path class="cls-1" d="M1310.57,443l-1.13-11.94h18.47l1.23,11.94v16.22l-.1,6.43-18.47,3.07Z"/><path class="cls-1" d="M1333.22,479.65a19.3,19.3,0,0,0,5.62-1.38,4.17,4.17,0,0,0,2.24-2.6,20.36,20.36,0,0,0,.51-5.31V431.07h34.09q8.16,0,13,4.69t4.85,14.6v39.8H1375V449.34q0-4.6-4.59-4.6h-10.2v23.17q0,8.67-2.66,13.67a16,16,0,0,1-8.11,7.35q-5.46,2.35-14.65,3.17Z"/><path class="cls-1" d="M1403.33,443l-1.12-11.94h18.47l1.23,11.94v47.15h-18.58Z"/><path class="cls-1" d="M1454.05,449.34q0-4.6-4.59-4.6h-20.92V431.07h26.23q8.16,0,13,4.69t4.85,14.6v39.8h-18.58Z"/><path class="cls-1" d="M1482.42,443l-1.12-11.94h18.47L1501,443v16.22l-.11,6.43-18.47,3.07Z"/><path class="cls-1" d="M1562.08,480.61q-12.61,10.68-39.55,10.67c-2.38,0-4.18,0-5.41-.1l-8-60.11h17.55l2.76,23.16a7.69,7.69,0,0,0,3.16-5.2,56.27,56.27,0,0,0,.61-10.92l-.1-7h17.56v6.63q0,11.24-4.29,18.42t-15.51,10.56l1.12,9.39q13.79-.81,18.93-7.6t5-18l-.2-19.39h18.57l.1,18.37Q1574.68,469.95,1562.08,480.61Z"/></svg>